<svg version="1.1" xmlns="http://www.w3.org/2000/svg" xmlns:xlink="http://www.w3.org/1999/xlink" width="371.92333984375" height="263"><defs/><g><g transform="translate(-38,-6) scale(1,1)"><rect fill="#C0C0C0" stroke="none" x="119" y="23" width="216" height="56" opacity="0.2"/></g><g transform="translate(-38,-6) scale(1,1)"><rect fill="#ffffff" stroke="none" x="112" y="16" width="216" height="56"/></g><g transform="translate(-38,-6) scale(1,1)"><path fill="none" stroke="#000000" d="M 112 16 L 328 16 L 328 72 L 112 72 L 112 16 Z Z" stroke-miterlimit="10"/></g><g transform="translate(-38,-6) scale(1,1)"><path fill="none" stroke="#000000" d="M 112 41 L 328 41" stroke-miterlimit="10"/></g><g transform="translate(-38,-6) scale(1,1)"><path fill="none" stroke="#000000" d="M 112 51 L 328 51" stroke-miterlimit="10"/></g><g transform="translate(-38,-6) scale(1,1)"><g><path fill="none" stroke="none"/><text fill="#000000" stroke="none" font-family="Arial" font-size="13px" font-style="italic" font-weight="bold" text-decoration="none" x="195.444091796875" y="34">Product</text></g></g><g transform="translate(-38,-6) scale(1,1)"><rect fill="#C0C0C0" stroke="none" x="55" y="119" width="128.81201171875" height="44" opacity="0.2"/></g><g transform="translate(-38,-6) scale(1,1)"><rect fill="#ffffff" stroke="none" x="48" y="112" width="128.81201171875" height="44"/></g><g transform="translate(-38,-6) scale(1,1)"><path fill="none" stroke="#000000" d="M 48 112 L 176.81201171875 112 L 176.81201171875 156 L 48 156 L 48 112 Z Z" stroke-miterlimit="10"/></g><g transform="translate(-38,-6) scale(1,1)"><path fill="none" stroke="#000000" d="M 48 137 L 176.81201171875 137" stroke-miterlimit="10"/></g><g transform="translate(-38,-6) scale(1,1)"><path fill="none" stroke="#000000" d="M 48 147 L 176.81201171875 147" stroke-miterlimit="10"/></g><g transform="translate(-38,-6) scale(1,1)"><g><path fill="none" stroke="none"/><text fill="#000000" stroke="none" font-family="Arial" font-size="13px" font-style="normal" font-weight="bold" text-decoration="none" x="54.98193359375" y="130">ConcreteProductA</text></g></g><g transform="translate(-38,-6) scale(1,1)"><rect fill="#C0C0C0" stroke="none" x="279" y="119" width="127.92333984375" height="44" opacity="0.2"/></g><g transform="translate(-38,-6) scale(1,1)"><rect fill="#ffffff" stroke="none" x="272" y="112" width="127.92333984375" height="44"/></g><g transform="translate(-38,-6) scale(1,1)"><path fill="none" stroke="#000000" d="M 272 112 L 399.92333984375 112 L 399.92333984375 156 L 272 156 L 272 112 Z Z" stroke-miterlimit="10"/></g><g transform="translate(-38,-6) scale(1,1)"><path fill="none" stroke="#000000" d="M 272 137 L 399.92333984375 137" stroke-miterlimit="10"/></g><g transform="translate(-38,-6) scale(1,1)"><path fill="none" stroke="#000000" d="M 272 147 L 399.92333984375 147" stroke-miterlimit="10"/></g><g transform="translate(-38,-6) scale(1,1)"><g><path fill="none" stroke="none"/><text fill="#000000" stroke="none" font-family="Arial" font-size="13px" font-style="normal" font-weight="bold" text-decoration="none" x="278.53759765625" y="130">ConcreteProductB</text></g></g><g transform="translate(-38,-6) scale(1,1)"><path fill="none" stroke="#000000" d="M 140 111 L 185 73" stroke-miterlimit="10"/></g><g transform="translate(-38,-6) scale(1,1)"><path fill="#FFFFFF" stroke="none" d="M 174.90262498446123 92.54592074565875 L 185 73 L 164.03902455053878 79.68113075811904"/></g><g transform="translate(-38,-6) scale(1,1)"><path fill="none" stroke="#000000" d="M 174.90262498446123 92.54592074565875 L 185 73 L 164.03902455053878 79.68113075811904 L 174.90262498446123 92.54592074565875" stroke-miterlimit="10"/></g><g transform="translate(-38,-6) scale(1,1)"><path fill="none" stroke="#000000" d="M 306 111 L 257 73" stroke-miterlimit="10"/></g><g transform="translate(-38,-6) scale(1,1)"><path fill="#FFFFFF" stroke="none" d="M 278.2208767827408 78.80296377480799 L 257 73 L 267.9021108396536 92.10874091194678"/></g><g transform="translate(-38,-6) scale(1,1)"><path fill="none" stroke="#000000" d="M 278.2208767827408 78.80296377480799 L 257 73 L 267.9021108396536 92.10874091194678 L 278.2208767827408 78.80296377480799" stroke-miterlimit="10"/></g><g transform="translate(-38,-6) scale(1,1)"><rect fill="#C0C0C0" stroke="none" x="151" y="207" width="152" height="59" opacity="0.2"/></g><g transform="translate(-38,-6) scale(1,1)"><rect fill="#ffffff" stroke="none" x="144" y="200" width="152" height="59"/></g><g transform="translate(-38,-6) scale(1,1)"><path fill="none" stroke="#000000" d="M 144 200 L 296 200 L 296 259 L 144 259 L 144 200 Z Z" stroke-miterlimit="10"/></g><g transform="translate(-38,-6) scale(1,1)"><path fill="none" stroke="#000000" d="M 144 225 L 296 225" stroke-miterlimit="10"/></g><g transform="translate(-38,-6) scale(1,1)"><path fill="none" stroke="#000000" d="M 144 235 L 296 235" stroke-miterlimit="10"/></g><g transform="translate(-38,-6) scale(1,1)"><g><path fill="none" stroke="none"/><text fill="#000000" stroke="none" font-family="Arial" font-size="13px" font-style="normal" font-weight="bold" text-decoration="none" x="196.52001953125" y="218">Factory</text></g></g><g transform="translate(-38,-6) scale(1,1)"><path fill="none" stroke="#000000" d="M 186 199 L 138 157" stroke-miterlimit="10"/></g><g transform="translate(-38,-6) scale(1,1)"><path fill="none" stroke="#000000" d="M 148.42017909297235 160.52418326288262 L 138 157 L 142.8762054144906 166.86015318114747" stroke-miterlimit="10"/></g><g transform="translate(-38,-6) scale(1,1)"><path fill="none" stroke="#000000" d="M 256 199 L 307 157" stroke-miterlimit="10"/></g><g transform="translate(-38,-6) scale(1,1)"><path fill="none" stroke="#000000" d="M 301.83114497120164 166.7099401486964 L 307 157 L 296.47910303410777 160.21103208222524" stroke-miterlimit="10"/></g></g></svg>